# xmcd CD database file
# Copyright (C) 1995-1998 Ti Kan
#
# Track frame offsets:
#	150
#	10032
#	20970
#	33337
#	46927
#	59945
#	74385
#	82615
#	91982
#	102172
#	112972
#	129117
#	140742
#	150995
#	165952
#	182107
#	194542
#	206677
#	219300
#	229742
#	238920
#	259750
#	271187
#	283592
#	294502
#	308630
#	325497
#	335805
#	346822
#
# Disc length: 4768 seconds
#
# Revision: 3
# Processed by: cddbd v1.4PL0 Copyright (c) Steve Scherf et al.
# Submitted via: CDex 1.30Release
#
DISCID=a3129e1d
DTITLE=Hank Snow - The Singing Ranger Vol. 3 [CD11 of 12)
DYEAR=1992
DGENRE=Country
TTITLE0=Hula Love 1966
TTITLE1=Cry My Guitar, Cry On 1966
TTITLE2=Beyond The Reef 1966
TTITLE3=To You My Sweetheart, Aloha 1966
TTITLE4=Oahu Rose 1966
TTITLE5=Blue For Old Hawaii 1966
TTITLE6=Don't Sing Aloha When I Go 1966
TTITLE7=Hawaiian Cowboy 1966
TTITLE8=My Little Grass Shack In Kealakekua, Hawaii 1966
TTITLE9=On The Beach In Waikiki 1966
TTITLE10=Tradewinds 1966
TTITLE11=Hawaiian Sunset (instrumental) 1966
TTITLE12=Pearly Shells 1992
TTITLE13=On That Old Hawaiian Shore With You 1963
TTITLE14=Now Is The Hour 1974
TTITLE15=Tears In The Tradewinds 1965
TTITLE16=King's Serenade (instrumental) 1966
TTITLE17=The Whispering Tradewinds (instrumental) 1966
TTITLE18=Spanish Fireball 1967
TTITLE19=Cross The Brazos At Waco 1967
TTITLE20=El Paso 1967
TTITLE21=Caribbean 1967
TTITLE22=Senorita Rosalita 1967
TTITLE23=Cuba Rhumba 1967
TTITLE24=Nuevo Laredo 1967
TTITLE25=Vaya Con Dios 1967
TTITLE26=Blue Rose Of The Rio 1967
TTITLE27=Maria Elena 1967
TTITLE28=Among My Souvenirs (instrumental) 1966
EXTD=YEAR: 1992 ID3G:   2
EXTT0=
EXTT1=
EXTT2=
EXTT3=
EXTT4=
EXTT5=
EXTT6=
EXTT7=
EXTT8=
EXTT9=
EXTT10=
EXTT11=
EXTT12=
EXTT13=
EXTT14=
EXTT15=
EXTT16=
EXTT17=
EXTT18=
EXTT19=
EXTT20=
EXTT21=
EXTT22=
EXTT23=
EXTT24=
EXTT25=
EXTT26=
EXTT27=
EXTT28=
PLAYORDER=
